<svg width="200" height="200" viewBox="0 0 200 200" fill="none" xmlns="http://www.w3.org/2000/svg">
<g clip-path="url(#clip0_5733_37235)">
<circle cx="100" cy="100" r="100" fill="#CCCCCC"/>
<path d="M100 134C108.653 134 117.112 131.434 124.306 126.627C131.501 121.82 137.108 114.987 140.42 106.992C143.731 98.9982 144.597 90.2015 142.909 81.7148C141.221 73.2282 137.054 65.4326 130.936 59.3141C124.817 53.1956 117.022 49.0288 108.535 47.3407C100.049 45.6526 91.2519 46.519 83.2576 49.8303C75.2633 53.1416 68.4305 58.7492 63.6232 65.9438C58.8159 73.1385 56.25 81.5971 56.25 90.25C56.25 101.853 60.8594 112.981 69.0641 121.186C77.2688 129.391 88.3968 134 100 134ZM100 146.5C72.8828 146.5 18.75 163.25 18.75 196.5V221.5H181.25V196.5C181.25 163.25 127.117 146.5 100 146.5Z" fill="#A2A2A2"/>
</g>
<defs>
<clipPath id="clip0_5733_37235">
<rect width="200" height="200" rx="100" fill="white"/>
</clipPath>
</defs>
</svg>
