<svg width="22" height="14" viewBox="0 0 22 14" fill="none" xmlns="http://www.w3.org/2000/svg">
<rect x="4" y="12.4404" width="3" height="10.869" rx="1.5" transform="rotate(-180 4 12.4404)" stroke="black" stroke-width="1.5"/>
<path d="M14.3261 7.77124L19.2174 6.04837C19.2174 6.04837 20.3043 5.47417 20.8478 6.62271C21.3913 7.77124 20.3043 8.34571 20.3043 8.34571C20.3043 8.34571 15.3047 12.0697 11.6087 12.3661C10.7622 12.434 10.2752 12.4929 9.43478 12.3661C7.55552 12.0824 5.89179 10.2353 4 10.0687V3.75102C4 3.75102 6.38303 3.29389 7.80435 3.75102C8.9883 4.13182 9.33039 5.11994 10.5217 5.47403C11.7476 5.83839 12.6957 5.8452 13.7826 5.47403C14.0459 5.38414 15.413 5.27086 15.413 6.41953C15.413 7.56821 14.3261 7.77124 14.3261 7.77124ZM14.3261 7.77124C13.2391 8.15409 12.5079 8.34571 10.6495 8.34571" stroke="black" stroke-width="1.5" stroke-linecap="round"/>
</svg>
