<svg width="22" height="22" viewBox="0 0 22 22" fill="none" xmlns="http://www.w3.org/2000/svg">
<path d="M18.9102 7.5505C18.9609 7.52201 19.0249 7.53736 19.0571 7.58571L20.4089 9.61337C20.7291 10.0937 20.5773 10.7446 20.0777 11.0336L13.9951 14.5528C13.5548 14.8076 12.9935 14.6912 12.6907 14.2825L11.075 12.1012C11.0352 12.0475 11.0515 11.971 11.1098 11.9382L18.9102 7.5505Z" stroke="black" stroke-width="1.5"/>
<path d="M11.0582 12.3019L10.701 11.6424L10.701 11.6424L11.0582 12.3019ZM11.1762 12.238L11.7789 11.7915L11.3914 11.2685L10.819 11.5785L11.1762 12.238ZM11.164 20.9112L11.5212 21.5707L11.5212 21.5707L11.164 20.9112ZM18.4763 16.9504L18.8335 17.6099L18.8335 17.6099L18.4763 16.9504ZM19 11.6572H19.75V10.3568L18.6244 11.0081L19 11.6572ZM13.9951 14.5529L13.6195 13.9037L13.9951 14.5529ZM12.6907 14.2826L13.2934 13.8362L12.6907 14.2826ZM11.4154 12.9614L11.5334 12.8974L10.819 11.5785L10.701 11.6424L11.4154 12.9614ZM11.75 12.3996C11.75 12.6341 11.6216 12.8497 11.4154 12.9614L10.701 11.6424C10.4231 11.7929 10.25 12.0836 10.25 12.3996H11.75ZM11.75 20.8135V12.3996H10.25V20.8135H11.75ZM10.8068 20.2518C11.2325 20.0212 11.75 20.3294 11.75 20.8135H10.25C10.25 21.4661 10.9475 21.8815 11.5212 21.5707L10.8068 20.2518ZM18.1191 16.291L10.8068 20.2518L11.5212 21.5707L18.8335 17.6099L18.1191 16.291ZM18.25 16.0711C18.25 16.1629 18.1997 16.2473 18.1191 16.291L18.8335 17.6099C19.3982 17.304 19.75 16.7134 19.75 16.0711H18.25ZM18.25 11.6572V16.0711H19.75V11.6572H18.25ZM18.6244 11.0081L13.6195 13.9037L14.3707 15.2021L19.3756 12.3064L18.6244 11.0081ZM13.6195 13.9037C13.5094 13.9674 13.3691 13.9383 13.2934 13.8362L12.0881 14.729C12.6179 15.4443 13.6002 15.6479 14.3707 15.2021L13.6195 13.9037ZM13.2934 13.8362L11.7789 11.7915L10.5735 12.6844L12.0881 14.729L13.2934 13.8362Z" fill="black"/>
<path d="M3.08978 7.5505C3.03914 7.52201 2.97509 7.53736 2.94286 7.58571L1.59108 9.61337C1.27089 10.0937 1.4227 10.7446 1.92234 11.0336L8.00491 14.5528C8.44517 14.8076 9.0065 14.6912 9.30926 14.2825L10.925 12.1012C10.9648 12.0475 10.9485 11.971 10.8902 11.9382L3.08978 7.5505Z" stroke="black" stroke-width="1.5"/>
<path d="M3 11.6572L3.37559 11.0081L2.25 10.3568V11.6572H3ZM8.00491 14.5529L8.3805 13.9037V13.9037L8.00491 14.5529ZM9.30926 14.2826L9.91193 14.729L9.30926 14.2826ZM10.8238 12.238L11.181 11.5785L10.6086 11.2685L10.2211 11.7915L10.8238 12.238ZM10.9418 12.3019L11.299 11.6424L11.299 11.6424L10.9418 12.3019ZM10.836 20.9112L10.4788 21.5707L10.4788 21.5707L10.836 20.9112ZM3.52372 16.9504L3.1665 17.6099L3.1665 17.6099L3.52372 16.9504ZM2.62441 12.3064L7.62931 15.2021L8.3805 13.9037L3.37559 11.0081L2.62441 12.3064ZM7.62931 15.2021C8.39977 15.6479 9.3821 15.4443 9.91193 14.729L8.70659 13.8362C8.6309 13.9383 8.49057 13.9674 8.3805 13.9037L7.62931 15.2021ZM9.91193 14.729L11.4265 12.6844L10.2211 11.7915L8.70659 13.8362L9.91193 14.729ZM11.299 11.6424L11.181 11.5785L10.4666 12.8974L10.5846 12.9614L11.299 11.6424ZM11.75 12.3996C11.75 12.0836 11.5769 11.7929 11.299 11.6424L10.5846 12.9614C10.3784 12.8497 10.25 12.6341 10.25 12.3996H11.75ZM11.75 20.8135V12.3996H10.25V20.8135H11.75ZM10.4788 21.5707C11.0525 21.8815 11.75 21.4661 11.75 20.8135H10.25C10.25 20.3294 10.7675 20.0212 11.1932 20.2518L10.4788 21.5707ZM3.1665 17.6099L10.4788 21.5707L11.1932 20.2518L3.88093 16.291L3.1665 17.6099ZM2.25 16.0711C2.25 16.7134 2.60179 17.304 3.1665 17.6099L3.88093 16.291C3.80026 16.2473 3.75 16.1629 3.75 16.0711H2.25ZM2.25 11.6572V16.0711H3.75V11.6572H2.25Z" fill="black"/>
<path d="M9 5.81081C9 5.80484 8.99516 5.8 8.98919 5.8H7.3436C6.85669 5.8 6.61801 5.20672 6.96926 4.86951L10.9251 1.07187C10.967 1.03171 11.033 1.03171 11.0749 1.07187L15.0307 4.86951C15.382 5.20672 15.1433 5.8 14.6564 5.8H13.0108C13.0048 5.8 13 5.80484 13 5.81081V8.5C13 8.77614 12.7761 9 12.5 9H9.5C9.22386 9 9 8.77614 9 8.5V5.81081Z" stroke="black" stroke-width="1.5"/>
<path d="M15.1886 5.35547L15.5563 4.70179L14.6446 4.18899L14.4515 5.21696L15.1886 5.35547ZM18.8278 7.40254L18.4601 8.05622L18.4601 8.05622L18.8278 7.40254ZM18.8278 7.59622L18.4601 6.94254L18.4601 6.94254L18.8278 7.59622ZM11.0544 11.9687L10.6867 11.3151L10.6867 11.3151L11.0544 11.9687ZM10.9455 11.9687L10.5778 12.6224L10.5778 12.6224L10.9455 11.9687ZM3.17212 7.59622L2.80442 8.2499L2.80442 8.2499L3.17212 7.59622ZM3.17212 7.40254L3.53981 8.05622L3.53981 8.05622L3.17212 7.40254ZM6.81135 5.35547L7.54845 5.21697L7.35529 4.18899L6.44365 4.70179L6.81135 5.35547ZM9.74995 5.81019C9.74995 5.38998 9.4093 5.04938 8.98914 5.04938V6.54938C8.58093 6.54938 8.24995 6.21846 8.24995 5.81019H9.74995ZM9.74995 8.49938V5.81019H8.24995V8.49938H9.74995ZM9.49995 8.24938C9.63802 8.24938 9.74995 8.36131 9.74995 8.49938H8.24995C8.24995 9.18974 8.8096 9.74938 9.49995 9.74938V8.24938ZM12.5 8.24938H9.49995V9.74938H12.5V8.24938ZM12.25 8.49938C12.25 8.36131 12.3619 8.24938 12.5 8.24938V9.74938C13.1903 9.74938 13.75 9.18974 13.75 8.49938H12.25ZM12.25 5.81019V8.49938H13.75V5.81019H12.25ZM13.0108 5.04938C12.5906 5.04938 12.25 5.39002 12.25 5.81019H13.75C13.75 6.21842 13.419 6.54938 13.0108 6.54938V5.04938ZM14.6564 5.04938H13.0108V6.54938H14.6564V5.04938ZM14.4515 5.21696C14.4589 5.17732 14.4791 5.13795 14.5157 5.1055C14.5576 5.0683 14.6116 5.04938 14.6564 5.04938V6.54938C15.3457 6.54938 15.8223 6.04394 15.9257 5.49397L14.4515 5.21696ZM14.8209 6.00915L18.4601 8.05622L19.1955 6.74886L15.5563 4.70179L14.8209 6.00915ZM18.4601 8.05622C18.0259 7.81197 18.0259 7.18679 18.4601 6.94254L19.1955 8.2499C19.7807 7.9207 19.7807 7.07806 19.1955 6.74885L18.4601 8.05622ZM18.4601 6.94254L10.6867 11.3151L11.4221 12.6224L19.1955 8.2499L18.4601 6.94254ZM10.6867 11.3151C10.8812 11.2057 11.1187 11.2057 11.3132 11.3151L10.5778 12.6224C10.8399 12.7699 11.16 12.7699 11.4221 12.6224L10.6867 11.3151ZM11.3132 11.3151L3.53981 6.94254L2.80442 8.2499L10.5778 12.6224L11.3132 11.3151ZM3.53981 6.94254C3.97403 7.18679 3.97404 7.81197 3.53981 8.05622L2.80442 6.74886C2.21916 7.07806 2.21917 7.9207 2.80442 8.2499L3.53981 6.94254ZM3.53981 8.05622L7.17905 6.00915L6.44365 4.70179L2.80442 6.74886L3.53981 8.05622ZM7.34355 5.04938C7.38829 5.04938 7.44226 5.0683 7.48422 5.1055C7.52083 5.13795 7.541 5.17732 7.54845 5.21697L6.07425 5.49397C6.17759 6.04394 6.65419 6.54938 7.34355 6.54938V5.04938ZM8.98914 5.04938H7.34355V6.54938H8.98914V5.04938Z" fill="black"/>
</svg>
